<svg width="41" height="40" viewBox="0 0 41 40" fill="none" xmlns="http://www.w3.org/2000/svg">
<g clip-path="url(#clip0_1075_73)">
<path d="M15.2711 1.50782C14.9842 1.60938 14.6097 1.78125 14.4264 1.89063C13.9084 2.21094 2.19309 12.8359 1.8504 13.2969C1.42004 13.875 1.03751 14.6875 0.846236 15.4297C0.686845 16.0469 0.686845 16.2422 0.702784 25.9375L0.726692 35.8203L0.909992 36.2734C1.33238 37.2969 2.32061 38.1953 3.36462 38.5156C3.88264 38.6719 4.04203 38.6719 16.5861 38.6719C28.8274 38.6719 29.2976 38.6641 29.7678 38.5234C30.9951 38.1484 31.9674 37.1484 32.3579 35.8672C32.4695 35.4844 32.4854 34.4453 32.4854 25.8438C32.4854 15.3984 32.5014 15.7109 32.0391 14.6016C31.7682 13.9531 31.2342 13.1484 30.756 12.6719C30.3018 12.2188 20.7223 3.57813 19.6943 2.6875C18.7379 1.85938 18.5387 1.73438 17.917 1.51563C17.1679 1.25782 16.0123 1.25782 15.2711 1.50782ZM17.407 7.99219C18.0924 8.66407 17.6062 9.84375 16.6419 9.84375C16.1398 9.84375 15.7812 9.61719 15.582 9.17969C15.3907 8.75 15.4385 8.39844 15.7334 8.05469C16.1876 7.53125 16.9049 7.50782 17.407 7.99219ZM12.0833 15.4844C14.5459 16.6563 15.0719 20.1719 13.0875 22.1406C11.6848 23.5469 9.6287 23.5781 8.18621 22.2266C7.35737 21.4531 6.90311 20.3672 6.90311 19.1797C6.90311 17.9922 7.35737 16.9063 8.18621 16.1328C9.28601 15.1016 10.7683 14.8594 12.0833 15.4844ZM20.1087 15.9375C20.4354 16.125 20.6347 16.5156 20.6267 16.9141C20.6187 17.1328 19.758 19.2188 17.67 24.1016C16.0442 27.875 14.6495 31.0625 14.5698 31.1719C14.4822 31.2813 14.251 31.4375 14.0518 31.5156C13.7011 31.6563 13.6772 31.6641 13.3186 31.5313C12.8643 31.3594 12.5615 30.9531 12.5615 30.5156C12.5615 30.1172 18.3713 16.4766 18.6901 16.1406C18.8017 16.0234 18.969 15.8906 19.0567 15.8594C19.3436 15.7422 19.8457 15.7734 20.1087 15.9375ZM24.0775 24.75C25.4722 25.3906 26.3568 26.8359 26.3568 28.4688C26.3568 30.1172 25.4722 31.5547 24.0616 32.2109C23.5515 32.4453 23.4639 32.4609 22.643 32.4609C21.8062 32.4609 21.7424 32.4453 21.2164 32.1953C20.1406 31.6797 19.3197 30.6172 19.0567 29.3984C18.3633 26.2188 21.32 23.4844 24.0775 24.75Z" fill="white"/>
<path d="M9.92341 17.6016C9.23803 18.0547 8.99097 19.2969 9.42133 20.1406C9.70026 20.6875 10.0748 20.9375 10.6168 20.9375C11.4217 20.9375 12.0035 20.1953 12.0035 19.1719C12.0035 18.4922 11.7086 17.875 11.2225 17.5625C10.9037 17.3594 10.2661 17.375 9.92341 17.6016Z" fill="white"/>
<path d="M21.9253 26.9688C21.4471 27.375 21.2877 27.7578 21.2877 28.4766C21.2877 29.1953 21.4471 29.5781 21.9253 29.9844C22.1644 30.1953 22.268 30.2344 22.6346 30.2344C23.2004 30.2344 23.5351 30.0156 23.822 29.4453C24.2604 28.5781 24.0213 27.3438 23.3279 26.8906C23.1287 26.7656 22.9374 26.7188 22.6346 26.7188C22.268 26.7188 22.1644 26.7578 21.9253 26.9688Z" fill="white"/>
<path d="M23.2485 2.78906C23.2644 2.83594 25.3285 4.71094 27.823 6.96875C30.3254 9.21875 32.5171 11.2344 32.7083 11.4453C33.5372 12.3672 34.2225 13.6641 34.5812 14.9531C34.7485 15.5781 34.7485 15.6406 34.7724 23.8438C34.7964 29.5859 34.8282 32.1094 34.884 32.1094C34.9318 32.1094 36.0157 31.6719 37.2908 31.1328C39.8889 30.0469 40.2874 29.8047 40.8453 28.9844C41.3314 28.2656 41.5147 27.6016 41.4748 26.6641L41.443 25.8984L38.287 16.8984C36.5497 11.9531 35.0354 7.72656 34.9239 7.50781C34.3819 6.46094 33.1945 5.375 32.0389 4.875C31.7998 4.77344 29.7835 4.26562 27.56 3.75C25.3365 3.23438 23.4557 2.78906 23.368 2.76562C23.2883 2.74219 23.2325 2.75 23.2485 2.78906Z" fill="white"/>
</g>
<defs>
<clipPath id="clip0_1075_73">
<rect width="40" height="40" fill="white" transform="translate(0.687012)"/>
</clipPath>
</defs>
</svg>
