<svg width="41" height="40" viewBox="0 0 41 40" fill="none" xmlns="http://www.w3.org/2000/svg">
<path d="M30.9995 37.8335C30.8589 37.7476 30.6792 37.5679 30.5933 37.4272C30.437 37.1772 30.437 37.0132 30.437 27.3647C30.437 17.7163 30.437 17.5522 30.5933 17.3022C30.6792 17.1616 30.8589 16.9819 30.9995 16.896C31.2495 16.7476 31.4058 16.7397 34.812 16.7397C38.2183 16.7397 38.3745 16.7476 38.6245 16.896C38.7651 16.9819 38.9448 17.1616 39.0308 17.3022C39.187 17.5522 39.187 17.7163 39.187 27.3647C39.187 37.0132 39.187 37.1772 39.0308 37.4272C38.9448 37.5679 38.7651 37.7476 38.6245 37.8335C38.3745 37.9819 38.2183 37.9897 34.812 37.9897C31.4058 37.9897 31.2495 37.9819 30.9995 37.8335Z" fill="white"/>
<path d="M6.74951 36.5914C5.6167 36.2242 4.64795 35.232 4.31201 34.0914C4.1167 33.4352 4.14795 32.3727 4.37451 31.7086L4.56201 31.1617L4.14795 30.7867C3.3042 30.0133 2.93701 29.1617 2.93701 27.9664C2.93701 27.4195 2.98389 27.1148 3.12451 26.7086L3.31201 26.1617L2.89795 25.7867C2.06201 25.0211 1.68701 24.1617 1.68701 22.982C1.68701 21.8258 2.06982 20.9508 2.89795 20.193L3.31201 19.818L3.12451 19.2711C2.89795 18.607 2.8667 17.5445 3.06201 16.8883C3.39795 15.732 4.37451 14.7477 5.52295 14.3883C5.96826 14.2477 6.31201 14.2398 11.2964 14.2398H16.5933L16.6323 10.7477C16.6636 6.86484 16.6714 6.80234 17.2026 5.79453C18.0464 4.19297 20.0776 3.10703 22.4292 3.01328C23.2808 2.98203 23.3901 2.99765 23.6245 3.13828C23.7651 3.23203 23.9448 3.41172 24.0386 3.55234C24.187 3.79453 24.1948 3.88828 24.1558 4.86484C24.1245 5.44297 24.0698 6.39609 24.0308 6.97422C23.937 8.4039 23.937 11.3492 24.0386 11.9664C24.1714 12.818 24.8511 14.0758 26.6245 16.7945C27.3823 17.9508 27.4136 17.9898 27.6714 17.9898H27.937V26.8102V35.6305L26.9526 35.9898C26.4136 36.1852 25.6714 36.4352 25.2964 36.5445L24.6245 36.7398L15.9058 36.732C7.6792 36.732 7.17139 36.7242 6.74951 36.5914Z" fill="white"/>
</svg>
