<svg width="25" height="24" viewBox="0 0 25 24" fill="none" xmlns="http://www.w3.org/2000/svg">
<rect x="0.687012" width="24" height="24" rx="4" fill="white" fill-opacity="0.15"/>
<path d="M13.3723 5.33401C13.8588 5.33214 14.3453 5.33703 14.8317 5.34868L14.961 5.35334C15.1103 5.35868 15.2577 5.36534 15.4357 5.37334C16.145 5.40668 16.629 5.51868 17.0537 5.68334C17.4937 5.85268 17.8643 6.08201 18.235 6.45268C18.5739 6.78575 18.8362 7.18864 19.0037 7.63334C19.1683 8.05801 19.2803 8.54268 19.3137 9.25201C19.3217 9.42934 19.3283 9.57734 19.3337 9.72668L19.3377 9.85601C19.3495 10.3421 19.3546 10.8284 19.353 11.3147L19.3537 11.812V12.6853C19.3553 13.1718 19.3502 13.6583 19.3383 14.1447L19.3343 14.274C19.329 14.4233 19.3223 14.5707 19.3143 14.7487C19.281 15.458 19.1677 15.942 19.0037 16.3667C18.8368 16.8119 18.5744 17.2151 18.235 17.548C17.9017 17.8869 17.4985 18.1492 17.0537 18.3167C16.629 18.4813 16.145 18.5933 15.4357 18.6267C15.2577 18.6347 15.1103 18.6413 14.961 18.6467L14.8317 18.6507C14.3453 18.6625 13.8588 18.6676 13.3723 18.666L12.875 18.6667H12.0023C11.5159 18.6683 11.0294 18.6632 10.543 18.6513L10.4137 18.6473C10.2554 18.6416 10.0972 18.6349 9.93901 18.6273C9.22968 18.594 8.74568 18.4807 8.32034 18.3167C7.87547 18.1496 7.4725 17.8872 7.13968 17.548C6.80037 17.2149 6.53783 16.8117 6.37034 16.3667C6.20568 15.942 6.09368 15.458 6.06034 14.7487C6.05292 14.5905 6.04625 14.4323 6.04034 14.274L6.03701 14.1447C6.02472 13.6583 6.01916 13.1718 6.02034 12.6853V11.3147C6.01848 10.8284 6.02337 10.3421 6.03501 9.85601L6.03968 9.72668C6.04501 9.57734 6.05168 9.42934 6.05968 9.25201C6.09301 8.54201 6.20501 8.05868 6.36968 7.63334C6.53726 7.18842 6.80032 6.78564 7.14034 6.45334C7.47294 6.11385 7.87565 5.85106 8.32034 5.68334C8.74568 5.51868 9.22901 5.40668 9.93901 5.37334L10.4137 5.35334L10.543 5.35001C11.0291 5.33773 11.5154 5.33217 12.0017 5.33334L13.3723 5.33401ZM12.687 8.66734C12.2453 8.6611 11.8068 8.74269 11.397 8.90739C10.9871 9.07209 10.6141 9.3166 10.2996 9.62671C9.98504 9.93683 9.73528 10.3064 9.5648 10.7139C9.39433 11.1213 9.30654 11.5586 9.30654 12.0003C9.30654 12.4421 9.39433 12.8794 9.5648 13.2868C9.73528 13.6943 9.98504 14.0639 10.2996 14.374C10.6141 14.6841 10.9871 14.9286 11.397 15.0933C11.8068 15.258 12.2453 15.3396 12.687 15.3333C13.5711 15.3333 14.4189 14.9822 15.044 14.357C15.6692 13.7319 16.0203 12.8841 16.0203 12C16.0203 11.116 15.6692 10.2681 15.044 9.64299C14.4189 9.01787 13.5711 8.66734 12.687 8.66734ZM12.687 10.0007C12.9527 9.99578 13.2167 10.0439 13.4635 10.1421C13.7104 10.2404 13.9352 10.3869 14.1249 10.573C14.3145 10.7592 14.4651 10.9812 14.568 11.2262C14.6708 11.4712 14.7238 11.7343 14.7239 12C14.7239 12.2657 14.671 12.5288 14.5682 12.7738C14.4655 13.0189 14.3149 13.241 14.1253 13.4272C13.9358 13.6134 13.711 13.7599 13.4642 13.8583C13.2173 13.9566 12.9534 14.0048 12.6877 14C12.1572 14 11.6485 13.7893 11.2735 13.4142C10.8984 13.0392 10.6877 12.5304 10.6877 12C10.6877 11.4696 10.8984 10.9609 11.2735 10.5858C11.6485 10.2107 12.1572 10 12.6877 10L12.687 10.0007ZM16.187 7.66734C15.9719 7.67595 15.7685 7.76744 15.6194 7.92266C15.4703 8.07787 15.387 8.28477 15.387 8.50001C15.387 8.71525 15.4703 8.92215 15.6194 9.07736C15.7685 9.23258 15.9719 9.32407 16.187 9.33268C16.408 9.33268 16.62 9.24488 16.7763 9.0886C16.9325 8.93232 17.0203 8.72036 17.0203 8.49934C17.0203 8.27833 16.9325 8.06637 16.7763 7.91009C16.62 7.75381 16.408 7.66601 16.187 7.66601V7.66734Z" fill="white"/>
</svg>
