<svg width="41" height="40" viewBox="0 0 41 40" fill="none" xmlns="http://www.w3.org/2000/svg">
<path d="M17.9683 2.87584C17.9917 4.4149 17.9917 4.43053 18.2027 4.75084C18.5855 5.32115 18.687 5.34459 20.7652 5.39146C22.6011 5.43053 22.6011 5.43053 22.9683 5.64928C24.3433 6.45396 24.2574 8.36803 22.812 9.07896C22.4761 9.24303 22.3042 9.26646 20.8433 9.30553C19.4995 9.34459 19.1714 9.38365 18.7964 9.51646C16.648 10.2899 15.5074 12.5243 16.1949 14.5868C16.437 15.3133 16.8277 15.9071 17.3433 16.3602C18.0152 16.954 18.9761 17.3446 19.7574 17.3446C20.3199 17.3446 20.9136 17.4852 21.4683 17.743C21.7808 17.8837 21.9839 17.9462 21.9995 17.8915C22.0152 17.8446 22.2417 17.4852 22.4995 17.0868C23.0699 16.2196 24.2417 15.0243 25.062 14.4774C26.8511 13.2821 28.6245 12.7352 30.7339 12.7352H31.773L31.9683 12.1258C32.2339 11.2899 32.8589 8.77428 32.9214 8.2899L32.9761 7.89146L32.5152 7.36803C29.1324 3.46959 24.4527 1.32896 19.3355 1.32896H17.937L17.9683 2.87584Z" fill="white"/>
<path d="M15.9214 1.63327C12.5854 2.34421 9.69482 3.85984 7.29639 6.17234L6.52295 6.92234L6.83545 7.35202C7.60107 8.37546 7.85107 9.07859 7.96045 10.4692C8.04639 11.602 8.22607 12.2817 8.6167 12.9067C8.76514 13.1567 9.01514 13.563 9.16357 13.8051C9.51514 14.3755 9.73389 14.9692 9.88232 15.7192C10.0542 16.6489 9.9917 22.188 9.8042 22.852C9.58545 23.6098 9.26514 24.2114 8.48389 25.3598C7.41357 26.938 7.38232 27.0317 7.34326 29.3442L7.31201 31.2192L7.98389 31.7973C8.6792 32.3911 9.78076 33.2114 10.1558 33.4067C10.4058 33.5395 10.2104 33.8051 11.7808 31.1958C12.9839 29.188 13.1401 28.9848 13.7495 28.5942C14.4761 28.1176 14.9683 28.0239 16.5542 28.063C17.8901 28.0864 17.9214 28.0942 18.4214 28.3286C18.7026 28.4692 19.2651 28.8286 19.6714 29.1333C20.5776 29.813 20.9839 29.9692 21.9683 30.0473L22.7339 30.102L22.3823 29.4067C20.7886 26.227 20.3276 22.3676 21.2261 19.7036C21.3667 19.2895 21.3823 19.1801 21.2964 19.0786C21.1011 18.8442 20.5542 18.6801 19.7417 18.602C18.2026 18.4536 17.3354 18.0551 16.312 17.0317C15.7729 16.5005 15.5776 16.2348 15.312 15.7036C14.9136 14.8911 14.7495 14.2192 14.7495 13.3911C14.7495 11.3364 16.0308 9.3989 17.9683 8.5239C18.7729 8.15671 19.437 8.04734 20.8042 8.04734C22.1011 8.04734 22.4761 7.96921 22.6323 7.67234C22.7651 7.43015 22.7339 7.09421 22.562 6.87546L22.4136 6.68015L20.5933 6.64109C18.8276 6.60202 18.7573 6.59421 18.3354 6.3989C17.7183 6.10984 17.2964 5.69577 16.9995 5.09421L16.7417 4.57077L16.7183 3.03171C16.7026 2.18015 16.6636 1.48484 16.6401 1.49265C16.6089 1.49265 16.2886 1.55515 15.9214 1.63327Z" fill="white"/>
<path d="M5.24951 8.53906C4.60889 9.42969 4.32764 9.89844 3.82764 10.8984C2.59326 13.375 2.01514 15.8359 2.01514 18.6719C2.01514 22 2.87451 25.0312 4.60889 27.8438C5.0542 28.5703 5.9292 29.7578 6.02295 29.7656C6.0542 29.7656 6.07764 29.3125 6.07764 28.7656C6.07764 27.0703 6.31982 26.375 7.5542 24.5234C8.73389 22.7734 8.69483 22.9531 8.69483 19.0625C8.69483 15.3438 8.69483 15.3438 7.85107 14.0234C7.04639 12.7656 6.82764 12.1094 6.71045 10.5703C6.66357 9.96094 6.58545 9.5 6.46826 9.20312C6.29639 8.73438 5.85889 8.03125 5.72607 7.99219C5.68701 7.98438 5.46826 8.22656 5.24951 8.53906Z" fill="white"/>
<path d="M33.9059 9.72656C33.859 9.89844 33.7809 10.1953 33.734 10.3906C33.6872 10.5859 33.5075 11.2422 33.3278 11.8594C33.1559 12.4688 33.0231 12.9844 33.0387 12.9922C33.0544 13.0078 33.3356 13.0938 33.6559 13.1953C34.2887 13.3906 35.2809 13.8438 35.8356 14.1797L36.1715 14.3906L36.1169 14.1328C35.8903 13.0859 34.6637 10.2656 34.1715 9.64844L33.984 9.41406L33.9059 9.72656Z" fill="white"/>
<path d="M29.0074 14.1406C26.0933 14.7734 23.7027 16.7422 22.6402 19.3984C22.1324 20.6719 22.0621 21.0625 22.0621 22.7734C22.0543 24.4297 22.1089 24.8516 22.5308 26.3047C23.523 29.7422 26.4761 34.3594 30.023 38.0234L30.6871 38.7109L31.3668 38.0078C35.0464 34.1719 37.8902 29.6797 38.8824 26.1406C39.2808 24.7344 39.3824 23.8906 39.3355 22.4687C39.2964 21.1016 39.1793 20.5078 38.7339 19.3984C37.7418 16.9141 35.4761 14.9453 32.8199 14.2422C31.7574 13.9609 30.0308 13.9141 29.0074 14.1406ZM32.1324 15.5391C34.773 16.0859 36.8824 18.0312 37.6871 20.6641C37.8824 21.3047 37.9058 21.4844 37.9058 22.6172C37.9136 23.9609 37.8511 24.3281 37.4293 25.375C37.1011 26.2031 36.6324 26.9297 35.9683 27.6328C34.9293 28.7422 33.5621 29.5156 32.1402 29.8047C31.3511 29.9609 30.023 29.9609 29.2339 29.8047C26.9293 29.3359 24.9136 27.6641 23.9605 25.4375C23.5464 24.4766 23.4605 23.9687 23.4683 22.6172C23.4683 21.4922 23.4918 21.2969 23.6793 20.6797C24.523 17.9375 26.7652 15.9297 29.4996 15.4687C30.1871 15.3594 31.398 15.3906 32.1324 15.5391Z" fill="white"/>
<path d="M29.398 16.7734C28.2261 17.0234 27.2339 17.5781 26.3511 18.4766C25.2183 19.6328 24.6714 21 24.6714 22.6562C24.6714 26.0391 27.2964 28.6719 30.6636 28.6719C31.7417 28.6719 32.4292 28.5078 33.4136 28.0312C34.1167 27.6875 34.3276 27.5312 34.898 26.9609C35.8355 26.0234 36.3355 25.1172 36.6011 23.8828C36.7808 23.0234 36.7105 21.625 36.437 20.8203C35.8667 19.125 34.6245 17.7656 33.0386 17.1016C31.9683 16.6562 30.5464 16.5234 29.398 16.7734Z" fill="white"/>
<path d="M14.984 29.3672C14.234 29.6016 13.9996 29.8672 12.7418 31.9844C12.1559 32.9766 11.6246 33.8672 11.5699 33.9609C11.4606 34.125 11.4762 34.1406 11.8434 34.3281C13.0465 34.9375 14.8199 35.5 16.4371 35.7969C17.3121 35.9531 17.7028 35.9766 19.359 35.9766C21.0231 35.9766 21.4059 35.9531 22.2887 35.7891C23.2887 35.6094 24.8199 35.2031 25.3981 34.9609L25.6949 34.8359L25.3668 34.3906C25.1871 34.1484 24.7496 33.5 24.3903 32.9531C24.0309 32.4141 23.6481 31.8906 23.5309 31.8047C23.2028 31.5469 22.5621 31.3516 21.8434 31.2969C20.6324 31.2031 20.0934 30.9766 18.8199 30.0469C18.3824 29.7188 17.8903 29.4219 17.7262 29.375C17.4059 29.2891 15.2809 29.2812 14.984 29.3672Z" fill="white"/>
</svg>
