<svg width="25" height="24" viewBox="0 0 25 24" fill="none" xmlns="http://www.w3.org/2000/svg">
<rect x="0.687012" width="24" height="24" rx="4" fill="white" fill-opacity="0.15"/>
<path d="M6.68728 5.99775C6.69744 6.01299 7.81209 7.63799 9.16541 9.60576C10.5162 11.5735 11.6232 13.1884 11.6232 13.1935C11.6232 13.1985 7.05545 18.5179 6.70252 18.9216C6.66697 18.9647 6.6949 18.9673 7.24588 18.9673H7.82986L9.98806 16.4562L12.1488 13.9476L13.8728 16.4562L15.5969 18.9673H17.5088C19.0322 18.9673 19.4181 18.9597 19.4004 18.9343C19.3902 18.919 18.2426 17.2433 16.8486 15.2146C15.4521 13.1858 14.307 11.5126 14.2994 11.4948C14.2892 11.4644 14.9062 10.7407 18.1664 6.9499L19.0144 5.96729H18.4304H17.8465L15.8076 8.33877C14.6853 9.64131 13.7611 10.7052 13.7535 10.7001C13.7459 10.6976 13.0095 9.62861 12.1158 8.33115L10.4933 5.96729H8.58142C7.10623 5.96729 6.67459 5.9749 6.68728 5.99775ZM13.7941 12.3581C15.9168 15.3974 17.6967 17.944 17.75 18.0202L17.8465 18.1548H17.001L16.1554 18.1522L12.2961 12.6298C10.1734 9.59053 8.39353 7.04385 8.34021 6.96768L8.24119 6.83057H9.08924L9.93474 6.83311L13.7941 12.3581Z" fill="white"/>
</svg>
